<svg
  xmlns="http://www.w3.org/2000/svg"
  viewBox="0 0 375 375"
  width="500"
  height="500"
>
  <circle cx="187.5" cy="187.5" r="187.5" fill="#171717" />
  <path
    fill="#f7efd1"
    d="M247.9 232.74c-13.86 9.66-30.71 15.33-48.89 15.33-47.27 0-85.59-38.32-85.59-85.59 0-28.95 14.37-54.54 36.36-70.03-54.11 2.23-97.29 46.8-97.29 101.46 0 56.08 45.46 101.54 101.54 101.54 42.33 0 78.61-25.9 93.85-62.72z"
  />
  <path
    fill="#f7efd1"
    d="M127.1 142.26c13.86-9.66 30.71-15.33 48.89-15.33 47.27 0 85.59 38.32 85.59 85.59 0 28.95-14.37 54.54-36.36 70.03 54.11-2.23 97.29-46.8 97.29-101.46 0-56.08-45.46-101.54-101.54-101.54-42.33 0-78.61 25.9-93.85 62.72z"
  />
</svg>
