<svg
  xmlns="http://www.w3.org/2000/svg"
  viewBox="0 0 375 375"
  preserveAspectRatio="xMidYMid meet"
  width="500"
  height="500"
>
  <g>
    <path
      fill="#fef3c7"
      d="M 271.378906 250.332031 C 252.128906 263.75 228.726562 271.621094 203.484375 271.621094 C 137.835938 271.621094 84.617188 218.402344 84.617188 152.753906 C 84.617188 112.550781 104.574219 77.007812 135.125 55.496094 C 59.972656 58.589844 0 120.492188 0 196.40625 C 0 274.292969 63.140625 337.433594 141.027344 337.433594 C 199.816406 337.433594 250.199219 301.464844 271.378906 250.332031 Z"
    />
  </g>
  <g>
    <path
      fill="#fef3c7"
      d="M 103.621094 124.664062 C 122.871094 111.246094 146.273438 103.378906 171.515625 103.378906 C 237.164062 103.378906 290.382812 156.597656 290.382812 222.246094 C 290.382812 262.449219 270.425781 297.992188 239.875 319.503906 C 315.027344 316.40625 375 254.503906 375 178.59375 C 375 100.707031 311.859375 37.566406 233.972656 37.566406 C 175.183594 37.566406 124.800781 73.535156 103.621094 124.664062 Z"
    />
  </g>
</svg>
